<?xml version="1.0" encoding="UTF-8" standalone="no"?>
<svg
   version="1.1"
   viewBox="0 0 2047 2048"
   width="1280"
   height="1280"
   id="svg9"
   sodipodi:docname="scsc.svg"
   inkscape:version="1.3.2 (091e20e, 2023-11-25)"
   xmlns:inkscape="http://www.inkscape.org/namespaces/inkscape"
   xmlns:sodipodi="http://sodipodi.sourceforge.net/DTD/sodipodi-0.dtd"
   xmlns="http://www.w3.org/2000/svg"
   xmlns:svg="http://www.w3.org/2000/svg">
  <defs
     id="defs9" />
  <sodipodi:namedview
     id="namedview9"
     pagecolor="#ffffff"
     bordercolor="#000000"
     borderopacity="0.25"
     inkscape:showpageshadow="2"
     inkscape:pageopacity="0.0"
     inkscape:pagecheckerboard="0"
     inkscape:deskcolor="#d1d1d1"
     inkscape:zoom="0.67434707"
     inkscape:cx="698.4534"
     inkscape:cy="1038.0411"
     inkscape:window-width="1376"
     inkscape:window-height="1257"
     inkscape:window-x="686"
     inkscape:window-y="44"
     inkscape:window-maximized="0"
     inkscape:current-layer="svg9" />
  <path
     transform="translate(999,501)"
     d="m0 0h49l28 3 27 5 64 16 147 37 202 51 293 74 178 45 10 6 6 9 1 3v439l-4 10-6 8-10 7-13 4h-129l-12-3-9-6-7-7-5-11-1-3-1-335-4-10-6-5-9-3-13 2-71 18-594 150-24 5-20 3-24 2h-37l-31-3-28-5-128-32-420-106-206-52-83-21-47-12-10-5-7-8-2-6v-15l4-8 4-5 9-5 844-213 44-11 30-5z"
     fill="#6D72F9"
     id="path1" />
  <path
     transform="translate(429,922)"
     d="m0 0h11l14 3 84 21 376 95 37 9 23 4 18 2 15 1h34l32-3 28-5 500-126 7-1h9l10 2 12 5 9 7 8 9 6 12 2 7 1 9v391l-2 13-5 12-7 9-10 9-10 5-62 16-464 117-27 5-26 3-29 1-27-1-33-4-28-6-147-37-289-73-79-20-10-4-11-8-7-8-7-14-2-8v-407l4-12 7-11 8-8 10-6 11-4z"
     fill="#6D72F9"
     id="path2" />
  <path
     transform="translate(1296,1014)"
     d="m0 0h36l24 4 20 6 19 8 18 10 17 12 15 13 11 11 9 11 11 15 9 15 9 17 9 23 6 22 4 21 2 19v34l-3 26-5 22-10 30-10 21-11 18-12 16-12 14-11 11-11 9-14 10-17 10-15 7-24 8-20 4-9 1h-34l-20-3-19-5-16-6-17-8-16-10-12-9-14-12-10-10-9-11-10-13-11-18-8-15-9-23-6-20-5-25-2-19v-34l2-19 5-25 6-20 8-20 8-16 8-14 10-14 9-11 11-12 7-7 14-11 11-8 17-10 15-7 24-8 20-4z"
     fill="#6D72F9"
     id="path3" />
  <path
     transform="translate(712,1014)"
     d="m0 0h35l20 3 25 7 18 8 17 9 17 12 13 11 18 18 13 17 12 19 8 15 10 25 7 25 4 22 2 29-1 27-3 22-6 25-7 21-10 22-13 22-10 13-11 13-17 17-17 13-18 11-21 10-18 6-23 5-9 1h-35l-20-3-25-7-18-8-17-9-17-12-13-11-18-18-13-17-11-17-10-19-9-23-6-20-5-27-2-26v-14l2-26 5-27 8-26 10-23 10-18 8-12 10-13 11-12 14-14 17-13 18-11 21-10 18-6 17-4z"
     fill="#6D72F9"
     id="path4" />
  <path
     transform="translate(1296,1014)"
     d="m0 0h36l24 4 20 6 19 8 18 10 17 12 15 13 11 11 9 11 11 15 9 15 9 17 9 23 6 22 4 21 2 19v34l-3 26-5 22-10 30-10 21-11 18-12 16-12 14-11 11-11 9-14 10-17 10-15 7-24 8-20 4-9 1h-34l-20-3-19-5-16-6-17-8-16-10-12-9-14-12-10-10-9-11-10-13-11-18-8-15-9-23-6-20-5-25-2-19v-34l2-19 5-25 6-20 8-20 8-16 8-14 10-14 9-11 11-12 7-7 14-11 11-8 17-10 15-7 24-8 20-4zm-20 57-22 4-18 6-16 8-10 6-12 9-10 9-11 11-12 16-9 16-8 17-6 18-4 19-2 20v18l2 20 4 19 6 18 12 25 8 12 11 14 16 16 16 12 18 10 21 8 18 4 8 1h29l18-3 20-6 19-9 15-10 11-9 17-17 11-15 10-17 8-18 6-20 4-21 1-9v-28l-3-21-5-20-6-16-8-16-7-12-9-12-9-10-13-13-15-11-18-10-15-6-18-5-14-2z"
     fill="#FEFEFE"
     id="path5" />
  <path
     transform="translate(712,1014)"
     d="m0 0h35l20 3 25 7 18 8 17 9 17 12 13 11 18 18 13 17 12 19 8 15 10 25 7 25 4 22 2 29-1 27-3 22-6 25-7 21-10 22-13 22-10 13-11 13-17 17-17 13-18 11-21 10-18 6-23 5-9 1h-35l-20-3-25-7-18-8-17-9-17-12-13-11-18-18-13-17-11-17-10-19-9-23-6-20-5-27-2-26v-14l2-26 5-27 8-26 10-23 10-18 8-12 10-13 11-12 14-14 17-13 18-11 21-10 18-6 17-4zm19 57-18 3-17 5-16 7-16 9-14 11-13 12-11 13-12 18-12 25-6 19-4 20-1 9v35l4 24 6 20 9 21 9 15 8 11 11 13 8 8 14 11 14 9 19 9 15 5 14 3 8 1h30l18-3 16-5 12-5 17-9 16-12 12-11 10-11 11-15 10-18 7-17 6-20 3-15 1-9v-36l-3-20-6-21-8-20-10-18-9-12-11-13-9-9-17-13-16-9-16-7-17-5-17-3z"
     fill="#FEFEFE"
     id="path6" />
  <path
     transform="translate(922,1382)"
     d="m0 0 11 1 56 14 22 3h25l22-3 61-15 9 1 6 4 4 6 1 3v7l-4 8-5 4-18 5-44 11-18 3-10 1h-32l-24-3-64-16-7-4-4-6-1-3v-8l3-6 6-5z"
     fill="#FEFEFE"
     id="path7" />
  <path
     transform="translate(1330,1117)"
     d="m0 0h17l12 4 9 6 5 4 7 10 4 10 1 4v18l-4 12-7 10-7 7-14 7-8 2h-13l-12-3-10-6-8-7-7-11-3-9-1-5v-12l3-12 7-12 7-7 10-6 8-3z"
     fill="#FEFEFE"
     id="path8" />
  <path
     transform="translate(788,1111)"
     d="m0 0h15l13 4 10 7 8 8 6 12 2 7v18l-4 12-7 10-7 7-8 5-13 4h-15l-13-4-11-7-8-9-6-12-2-9v-12l3-12 7-12 7-7 10-6z"
     fill="#FEFEFE"
     id="path9" />
</svg>
